<svg width="24" height="23" viewBox="0 0 24 23" fill="none" xmlns="http://www.w3.org/2000/svg">
<path d="M17.6247 11.3129C17.2916 10.6567 17.5295 9.7985 18.1956 9.49563C18.7666 9.19275 19.4804 9.49563 19.8134 10.0509L22.2876 14.6447C23.3344 16.6134 22.6683 19.0869 20.8127 20.1975L18.8142 21.409C16.911 22.5196 14.8174 21.7119 14.8174 21.7119L8.15603 19.0364C7.91812 18.986 7.77538 18.6831 7.82296 18.4307C8.06087 17.4715 8.96488 16.8153 9.91652 16.9163L12.6762 17.4715L8.01329 8.94033C7.68021 8.28412 7.91812 7.42595 8.58422 7.12303C9.15521 6.87065 9.82136 7.12303 10.1544 7.72883L12.4859 12.1206M17.6247 11.3129L17.1965 10.5053C16.8634 9.89946 16.1972 9.64709 15.6263 9.89946C14.9601 10.2024 14.7223 11.0605 15.0553 11.7168M17.6247 11.3129L18.0529 12.1206M15.0553 11.7168L14.6271 10.9091C14.294 10.3033 13.6279 10.0509 13.0569 10.3033C12.3907 10.6062 12.1528 11.4644 12.4859 12.1206M15.0553 11.7168L15.4835 12.5244M12.4859 12.1206L12.9141 12.9283" stroke="#4E43BF" stroke-width="1.5" stroke-linecap="round" stroke-linejoin="round"/>
<path d="M3.53668 1.73608L6.28318 5.01363" stroke="#4E43BF" stroke-width="1.5" stroke-linecap="round" stroke-linejoin="round"/>
<path d="M1.28564 8.03906L2.68072 8.58947" stroke="#4E43BF" stroke-width="1.5" stroke-linecap="round" stroke-linejoin="round"/>
<path d="M10.7403 1.28564L10.5906 2.70936" stroke="#4E43BF" stroke-width="1.5" stroke-linecap="round" stroke-linejoin="round"/>
</svg>
