<svg width="21" height="16" viewBox="0 0 21 16" fill="none" xmlns="http://www.w3.org/2000/svg">
<path fill-rule="evenodd" clip-rule="evenodd" d="M14.2112 11.4701C14.2112 13.4549 12.8588 14.8571 10.6958 14.8571H4.50438C2.34332 14.8571 0.999878 13.4549 0.999878 11.4701V4.53878C0.999878 2.55498 2.34332 1.14282 4.51534 1.14282H10.6958C12.8588 1.14282 14.2112 2.55498 14.2112 4.53878V11.4701Z" stroke="#AD1E40" stroke-width="1.5" stroke-linecap="round" stroke-linejoin="round"/>
<path d="M9.64271 8.31694C9.98556 8.11899 9.98556 7.62412 9.64271 7.42617L7.13556 5.97867C6.79271 5.78072 6.36414 6.02816 6.36414 6.42406V9.31906C6.36414 9.71496 6.79271 9.96239 7.13556 9.76444L9.64271 8.31694Z" stroke="#AD1E40" stroke-width="1.5" stroke-linecap="round" stroke-linejoin="round"/>
<path d="M14.2114 7.14417L18.2915 3.80399C18.9388 3.27119 19.9217 3.73428 19.9217 4.57779V11.4215C19.9217 12.266 18.9388 12.7271 18.2915 12.1953L14.2114 8.8551" stroke="#AD1E40" stroke-width="1.5" stroke-linecap="round" stroke-linejoin="round"/>
</svg>
