<svg width="21" height="21" viewBox="0 0 21 21" fill="none" xmlns="http://www.w3.org/2000/svg">
<path d="M8.672 16.5503C8.672 18.5052 7.06652 20.09 5.08606 20.09C3.1056 20.09 1.50012 18.5052 1.50012 16.5503C1.50012 14.5954 3.1056 13.0107 5.08606 13.0107C7.06652 13.0107 8.672 14.5954 8.672 16.5503ZM8.672 16.5503V5.84611C8.672 5.03045 9.16732 4.29651 9.92375 3.99135L17.0692 1.1087C18.3837 0.578402 19.8175 1.54601 19.8175 2.96346V13.0107M19.8175 13.0107C19.8175 14.9656 18.212 16.5503 16.2315 16.5503C14.2511 16.5503 12.6456 14.9656 12.6456 13.0107C12.6456 11.0558 14.2511 9.471 16.2315 9.471C18.212 9.471 19.8175 11.0558 19.8175 13.0107Z" stroke="#435DBA" stroke-width="1.5" stroke-linecap="round" stroke-linejoin="round"/>
</svg>
