<svg width="20" height="23" viewBox="0 0 20 23" fill="none" xmlns="http://www.w3.org/2000/svg">
<path d="M13.5432 7.28037H15.3249C16.3273 7.28037 17.1749 8.02243 17.3074 9.01605L18.7366 19.7357C18.8965 20.9346 17.9638 22 16.7542 22H3.65936C2.44978 22 1.51705 20.9346 1.67691 19.7357L3.10619 9.01605C3.23868 8.02244 4.08624 7.28037 5.08865 7.28037H6.87033M13.5432 7.28037V4.33645C13.5432 2.49378 12.0494 1 10.2068 1V1C8.3641 1 6.87033 2.49378 6.87033 4.33645V7.28037M13.5432 7.28037H6.87033M13.5432 7.28037V9.92991M6.87033 7.28037V9.92991" stroke="#1BBF8E" stroke-width="1.5" stroke-linecap="round" stroke-linejoin="round"/>
</svg>
