<svg width="23" height="18" viewBox="0 0 23 18" fill="none" xmlns="http://www.w3.org/2000/svg">
<path d="M14.4644 1.28564L2.87229 6.89215C1.93132 7.34725 1.38652 8.35651 1.5198 9.3977L1.66324 10.5183C1.79652 11.5595 2.57796 12.399 3.60322 12.6024L6.05784 13.0894M14.4644 1.28564C14.4644 1.28564 16.764 2.86452 17.4127 7.93281C18.0615 13.0011 16.2338 15.1083 16.2338 15.1083M14.4644 1.28564C13.7955 3.34206 13.2128 8.98557 16.2338 15.1083M16.2338 15.1083L8.72214 13.618M8.72214 13.618L9.23835 15.4871C9.4176 16.1362 9.0393 16.8077 8.39341 16.987C7.74751 17.1663 7.07859 16.7855 6.89934 16.1364L6.05784 13.0894M8.72214 13.618L6.05784 13.0894M19.1521 4.77108L19.7544 3.80928M21.6205 7.30529L20.7179 7.42083M19.8874 10.5159L20.6938 11.1575" stroke="#9B8807" stroke-width="1.5" stroke-linecap="round" stroke-linejoin="round"/>
</svg>
