<svg width="21" height="22" viewBox="0 0 21 22" fill="none" xmlns="http://www.w3.org/2000/svg">
<path d="M13.9189 16.0476C13.652 16.527 13.5 17.0791 13.5 17.6667C13.5 19.5076 14.9924 21 16.8333 21C18.6743 21 20.1667 19.5076 20.1667 17.6667C20.1667 15.8257 18.6743 14.3333 16.8333 14.3333C15.58 14.3333 14.4882 15.0251 13.9189 16.0476ZM13.9189 16.0476L7.74772 12.6191M13.9189 5.95244C14.4882 6.97494 15.58 7.66667 16.8333 7.66667C18.6743 7.66667 20.1667 6.17428 20.1667 4.33333C20.1667 2.49238 18.6743 1 16.8333 1C14.9924 1 13.5 2.49238 13.5 4.33333C13.5 4.92095 13.652 5.47305 13.9189 5.95244ZM13.9189 5.95244L7.74772 9.3809M7.74772 9.3809C7.17845 8.35839 6.08667 7.66667 4.83333 7.66667C2.99238 7.66667 1.5 9.15905 1.5 11C1.5 12.8409 2.99238 14.3333 4.83333 14.3333C6.08667 14.3333 7.17845 13.6416 7.74772 12.6191M7.74772 9.3809C8.01462 9.86029 8.16667 10.4124 8.16667 11C8.16667 11.5876 8.01462 12.1397 7.74772 12.6191" stroke="#10B2D6" stroke-width="1.5" stroke-linecap="round" stroke-linejoin="round"/>
</svg>
