<svg width="20" height="19" viewBox="0 0 20 19" fill="none" xmlns="http://www.w3.org/2000/svg">
<path fill-rule="evenodd" clip-rule="evenodd" d="M10.1169 17.8338C8.09727 16.5743 6.21842 15.0919 4.514 13.4131C3.31572 12.2042 2.40347 10.7303 1.84715 9.10447C0.846027 5.95053 2.0154 2.33988 5.28798 1.27133C6.52157 0.868908 7.8367 0.920083 9.01656 1.38785C9.85152 1.71887 10.8201 1.71931 11.6552 1.3886C12.835 0.921358 14.1497 0.869976 15.3833 1.27133C18.6559 2.33988 19.8337 5.95053 18.8326 9.10447C18.2762 10.7303 17.364 12.2042 16.1657 13.4131C14.4613 15.0919 12.5824 16.5743 10.5628 17.8338V17.8338C10.4288 17.9183 10.2585 17.9197 10.123 17.8375L10.1169 17.8338Z" stroke="#FF466C" stroke-width="1.5" stroke-linecap="round" stroke-linejoin="round"/>
<path d="M14.2284 4.53638C15.4074 4.9338 16.2451 6.05076 16.3498 7.36495" stroke="#FF466C" stroke-width="1.5" stroke-linecap="round" stroke-linejoin="round"/>
</svg>
