<svg width="22" height="18" viewBox="0 0 22 18" fill="none" xmlns="http://www.w3.org/2000/svg">
<path fill-rule="evenodd" clip-rule="evenodd" d="M6.20854 0.999756H16.0136C17.4274 1.01401 18.773 1.55122 19.7371 2.48626C20.7012 3.42131 21.1995 4.67258 21.1161 5.94865V12.0509C21.1995 13.3269 20.7012 14.5782 19.7371 15.5132C18.773 16.4483 17.4274 16.9855 16.0136 16.9998H6.20854C3.17182 16.9998 1.12512 14.7792 1.12512 12.0509V5.94865C1.12512 3.2203 3.17182 0.999756 6.20854 0.999756Z" stroke="#DE350B" stroke-width="1.5" stroke-linecap="round" stroke-linejoin="round"/>
<path d="M14.0251 8.65335C14.2918 8.80731 14.2918 9.19221 14.0251 9.34617L9.97512 11.6844C9.70846 11.8384 9.37512 11.6459 9.37512 11.338L9.37512 6.66149C9.37512 6.35357 9.70846 6.16112 9.97512 6.31508L14.0251 8.65335Z" stroke="#DE350B" stroke-width="1.5" stroke-linecap="round" stroke-linejoin="round"/>
</svg>
