<svg width="18" height="18" viewBox="0 0 18 18" fill="none" xmlns="http://www.w3.org/2000/svg">
    <path d="M15.6157 12.8029L16.2504 13.2025C16.422 12.9301 16.4005 12.5785 16.197 12.3289C15.9935 12.0794 15.6534 11.9875 15.352 12.1008L15.6157 12.8029ZM6.50545 1.63843L7.14009 2.03809C7.31168 1.76562 7.2902 1.41403 7.08672 1.16447C6.88323 0.914917 6.54316 0.823098 6.24172 0.936326L6.50545 1.63843ZM15.352 12.1008C14.6036 12.3819 13.7921 12.536 12.9429 12.536V14.036C13.975 14.036 14.965 13.8485 15.8795 13.505L15.352 12.1008ZM12.9429 12.536C9.15861 12.536 6.09082 9.46825 6.09082 5.68393H4.59082C4.59082 10.2967 8.33018 14.036 12.9429 14.036V12.536ZM6.09082 5.68393C6.09082 4.34266 6.47544 3.09351 7.14009 2.03809L5.87082 1.23876C5.05985 2.5265 4.59082 4.05159 4.59082 5.68393H6.09082ZM2.32617 8.75737C2.32617 5.82206 4.17221 3.31603 6.76918 2.34053L6.24172 0.936326C3.07887 2.12439 0.826172 5.17687 0.826172 8.75737H2.32617ZM9.17828 15.6095C5.39396 15.6095 2.32617 12.5417 2.32617 8.75737H0.826172C0.826172 13.3701 4.56554 17.1095 9.17828 17.1095V15.6095ZM14.9811 12.4032C13.767 14.3311 11.6216 15.6095 9.17828 15.6095V17.1095C12.1583 17.1095 14.7732 15.5482 16.2504 13.2025L14.9811 12.4032Z" fill="#7D7D7D"/>
</svg>
